<svg width="19" height="18" viewBox="0 0 19 18" fill="none" xmlns="http://www.w3.org/2000/svg">
<path d="M2.94995 18C2.39995 18 1.92912 17.8042 1.53745 17.4125C1.14578 17.0208 0.949951 16.55 0.949951 16V2C0.949951 1.45 1.14578 0.979167 1.53745 0.5875C1.92912 0.195833 2.39995 0 2.94995 0H16.95C17.5 0 17.9708 0.195833 18.3625 0.5875C18.7541 0.979167 18.95 1.45 18.95 2V16C18.95 16.55 18.7541 17.0208 18.3625 17.4125C17.9708 17.8042 17.5 18 16.95 18H2.94995ZM2.94995 16H8.94995V2H2.94995V16ZM10.95 16H16.95V9H10.95V16ZM10.95 7H16.95V2H10.95V7Z" fill="#6E6E6E"/>
</svg>
