<svg width="21" height="20" viewBox="0 0 21 20" fill="none" xmlns="http://www.w3.org/2000/svg">
<path d="M12.075 20C10.185 20 8.575 19.3667 7.245 18.1C5.915 16.8333 5.25 15.3 5.25 13.5V12.925C3.745 12.6917 2.49375 12.0208 1.49625 10.9125C0.49875 9.80417 0 8.5 0 7V1H3.15V0H5.25V4H3.15V3H2.1V7C2.1 8.1 2.51125 9.04167 3.33375 9.825C4.15625 10.6083 5.145 11 6.3 11C7.455 11 8.44375 10.6083 9.26625 9.825C10.0887 9.04167 10.5 8.1 10.5 7V3H9.45V4H7.35V0H9.45V1H12.6V7C12.6 8.5 12.1012 9.80417 11.1037 10.9125C10.1062 12.0208 8.855 12.6917 7.35 12.925V13.5C7.35 14.75 7.80937 15.8125 8.72812 16.6875C9.64687 17.5625 10.7625 18 12.075 18C13.3875 18 14.5031 17.5625 15.4219 16.6875C16.3406 15.8125 16.8 14.75 16.8 13.5V11.825C16.1875 11.625 15.6844 11.2667 15.2906 10.75C14.8969 10.2333 14.7 9.65 14.7 9C14.7 8.16667 15.0062 7.45833 15.6187 6.875C16.2312 6.29167 16.975 6 17.85 6C18.725 6 19.4688 6.29167 20.0812 6.875C20.6937 7.45833 21 8.16667 21 9C21 9.65 20.8031 10.2333 20.4094 10.75C20.0156 11.2667 19.5125 11.625 18.9 11.825V13.5C18.9 15.3 18.235 16.8333 16.905 18.1C15.575 19.3667 13.965 20 12.075 20ZM17.85 10C18.1475 10 18.3969 9.90417 18.5981 9.7125C18.7994 9.52083 18.9 9.28333 18.9 9C18.9 8.71667 18.7994 8.47917 18.5981 8.2875C18.3969 8.09583 18.1475 8 17.85 8C17.5525 8 17.3031 8.09583 17.1019 8.2875C16.9006 8.47917 16.8 8.71667 16.8 9C16.8 9.28333 16.9006 9.52083 17.1019 9.7125C17.3031 9.90417 17.5525 10 17.85 10Z" fill="#6E6E6E"/>
</svg>
