<svg width="63" height="97" viewBox="0 0 63 97" fill="none" xmlns="http://www.w3.org/2000/svg">
<path d="M26.2487 96.4075C17.4613 96.4075 8.75618 96.4075 0 96.4075C0 64.2575 0 32.1507 0 0C20.7646 0 41.5379 0 62.3608 0C62.3608 32.0967 62.3608 64.2042 62.3608 96.4075C50.3549 96.4075 38.3429 96.4075 26.2487 96.4075ZM1.14216 12.0555C1.14216 39.7626 1.14216 67.4697 1.14216 95.1812C21.2741 95.1812 41.2815 95.1812 61.3128 95.1812C61.3128 63.8135 61.3128 32.4965 61.3128 1.16745C41.2374 1.16745 21.2102 1.16745 1.14216 1.16745C1.14216 4.7866 1.14216 8.34198 1.14216 12.0555Z" fill="#151515"/>
<path d="M1.14185 11.9764C1.14185 8.34196 1.14185 4.78658 1.14185 1.16743C21.2099 1.16743 41.2371 1.16743 61.3125 1.16743C61.3125 32.4965 61.3125 63.8135 61.3125 95.1812C41.2812 95.1812 21.2738 95.1812 1.14185 95.1812C1.14185 67.4697 1.14185 39.7626 1.14185 11.9764ZM27.1311 43.3533C27.1081 43.7322 27.0851 44.1112 27.0609 44.5103C28.1043 44.5103 29.0236 44.5103 29.9924 44.5103C30.0106 44.2148 30.0216 43.9581 30.0429 43.7023C30.1329 42.6221 30.6593 41.7582 31.6562 41.2954C32.2451 41.0221 32.3343 40.6945 32.3313 40.1482C32.3104 36.3798 32.3203 32.6112 32.3203 28.8427C32.3203 28.5626 32.3203 28.2826 32.3203 27.971C32.8593 27.971 33.2841 27.971 33.7342 27.971C33.7631 28.105 33.8032 28.2038 33.8033 28.3028C33.8076 32.7037 33.8063 37.1047 33.8122 41.5057C33.813 42.0554 33.5317 42.2752 32.986 42.3875C31.8219 42.6272 31.4014 43.3173 31.6311 44.4859C33.3337 44.4859 35.0386 44.4859 36.823 44.4859C36.823 38.9484 36.823 33.4775 36.823 27.9718C37.357 27.9718 37.8101 27.9718 38.3756 27.9718C38.3756 32.3919 38.3756 36.771 38.3756 41.0983C39.4235 41.0074 40.3613 40.9261 41.4018 40.8358C41.1272 36.9593 41.3743 33.2413 44.538 30.3824C44.902 30.6759 45.2508 30.9572 45.591 31.2315C45.4648 31.4325 45.4224 31.5315 45.3525 31.6068C43.5905 33.5039 42.7903 35.7319 42.8453 38.2648C42.8671 39.2658 42.8532 40.2676 42.8476 41.269C42.8424 42.206 42.684 42.3511 41.6845 42.3581C41.1915 42.3615 40.6981 42.3468 40.2055 42.3615C38.7551 42.4048 38.2185 43.0529 38.4631 44.4878C43.148 44.4878 47.8382 44.4878 52.5696 44.4878C52.5696 42.8436 52.5941 41.2638 52.5649 39.6849C52.487 35.4701 50.8916 31.8342 47.9003 28.7833C46.153 27.0012 44.2438 25.3629 42.5467 23.5399C41.7702 22.7059 41.2236 21.6237 40.7807 20.573C40.5554 20.0387 40.365 19.8981 39.8298 19.9007C36.5978 19.9168 33.3658 19.9077 30.1337 19.9109C29.8956 19.9111 29.6575 19.9421 29.3387 19.9644C29.3387 20.3042 29.3387 20.5887 29.3387 20.8731C29.3387 24.7998 29.3388 28.7264 29.3387 32.6531C29.3387 35.4465 29.321 38.2401 29.35 41.0333C29.3582 41.8232 29.1864 42.3256 28.2546 42.4803C27.8661 42.5448 27.5428 42.9737 27.1311 43.3533ZM22.5832 17.8023C21.8064 17.8995 21.2343 17.6911 20.8128 16.9789C20.5647 16.5599 20.0721 16.2748 19.511 15.7682C19.511 16.2528 19.511 16.4563 19.511 16.6599C19.5109 19.1109 19.4936 21.562 19.5172 24.0128C19.5309 25.4305 18.9004 26.4941 17.7216 27.2834C16.9129 27.8248 16.0761 28.3271 15.2666 28.8673C12.583 30.6582 10.8396 33.0609 10.6247 36.2334C10.4417 38.9346 10.5339 41.653 10.5087 44.3638C10.5083 44.4057 10.5644 44.4481 10.6135 44.5175C14.0368 44.5175 17.4781 44.5175 20.9219 44.5175C20.8585 43.6598 20.3874 43.1712 19.5574 43.1323C18.9015 43.1015 18.242 43.1019 17.5858 43.1279C16.8057 43.1587 16.5395 42.8167 16.515 42.0829C16.4755 40.905 16.4945 39.6878 16.1809 38.5669C15.8856 37.511 15.1925 36.558 14.6371 35.4878C14.7404 35.3818 14.9195 35.1854 15.1137 35.004C15.2272 34.898 15.3648 34.8158 15.5446 34.6842C17.5854 36.6086 18.1462 39.0003 18.0333 41.646C18.8207 41.646 19.5158 41.646 20.3127 41.646C20.3127 38.9915 20.3127 36.3722 20.3127 33.7338C20.8588 33.7338 21.3014 33.7338 21.796 33.7338C21.796 35.8031 21.8475 37.8053 21.7799 39.8037C21.7245 41.4415 21.8107 43.0284 22.7037 44.4974C23.0573 44.4974 23.4824 44.4974 23.9847 44.4974C23.9847 44.1581 23.9847 43.8738 23.9847 43.5895C23.9848 40.5323 23.9977 37.4751 23.9736 34.4181C23.9689 33.8276 24.171 33.5856 24.7789 33.6623C25.0143 33.6919 25.2528 33.6989 25.5601 33.7214C25.5601 36.7858 25.5601 39.7982 25.5601 42.7296C26.0994 42.2395 26.5817 41.6643 27.1959 41.2889C27.6418 41.0163 27.7641 40.7631 27.7634 40.2983C27.7515 32.471 27.7554 24.6436 27.7525 16.8163C27.7524 16.5754 27.716 16.3345 27.6823 15.9183C27.2528 16.2496 26.8623 16.4052 26.7324 16.6764C26.1725 17.8446 25.1633 17.8943 24.0541 17.8079C23.6186 17.774 23.178 17.8023 22.5832 17.8023ZM38.3291 91.7695C39.6021 91.7695 40.875 91.7695 42.3385 91.7695C41.0175 90.2236 40.9952 88.5563 41.0164 86.8515C41.0575 83.5591 41.0499 80.2656 41.0166 76.9729C41.0053 75.8518 41.3068 74.8485 41.8847 73.8988C41.9883 73.7286 42.0789 73.551 42.1729 73.3815C39.7356 73.3815 37.3521 73.3815 35.0598 73.3815C35.4008 74.2918 35.9722 75.1611 36.0146 76.0537C36.1411 78.7145 36.06 81.3845 36.06 84.051C35.2371 82.467 34.4938 80.868 33.8085 79.2463C33.0016 77.3367 31.8209 75.5383 31.9196 73.38C29.3232 73.38 26.8038 73.38 24.2522 73.38C25.4097 75.5455 25.4097 75.5455 25.4097 78.0238C25.4097 81.3957 25.4665 84.7692 25.3737 88.1388C25.3473 89.0976 24.8971 90.0484 24.6161 90.996C24.5463 91.2315 24.3787 91.4402 24.2246 91.7182C26.6931 91.7182 29.0766 91.7182 31.5864 91.7182C30.5051 90.3578 30.2656 88.8949 30.3263 87.3247C30.3935 85.5884 30.3403 83.8479 30.3437 82.1092C30.344 81.9255 30.3721 81.7417 30.4028 81.372C31.2412 83.1641 32.0046 84.76 32.7361 86.3693C33.5184 88.0903 34.557 89.7333 34.4983 91.7694C35.7644 91.7694 36.9646 91.7694 38.3291 91.7695ZM25.824 64.2422C25.8676 66.2456 25.9838 68.2631 24.6136 69.9923C24.595 70.0158 24.6395 70.0856 24.645 70.1032C29.8403 70.1032 35.0246 70.1032 40.2019 70.1032C40.2019 68.1814 40.2019 66.3195 40.2019 64.3237C37.5785 66.3216 34.6011 65.3872 31.7552 65.6374C31.7552 64.5428 31.7552 63.5594 31.7552 62.5829C33.7328 62.3625 35.5622 62.5716 37.2435 63.8058C37.2435 61.5768 37.2435 59.4915 37.2435 57.2622C35.5543 58.4916 33.7143 58.734 31.7695 58.5019C31.7695 57.2711 31.7695 56.0805 31.7695 54.8296C34.6508 55.0707 37.6177 54.1966 40.1806 56.1719C40.1806 54.1578 40.1806 52.2779 40.1806 50.3984C34.9672 50.3984 29.8057 50.3984 24.4419 50.3984C25.847 51.9964 25.8591 53.7981 25.8341 55.6292C25.7956 58.447 25.824 61.2657 25.824 64.2422ZM5.93917 77.932C5.66751 79.054 5.29305 80.1639 5.14719 81.3009C4.89999 83.2278 5.10356 85.1462 5.79919 86.9801C7.06805 90.3251 9.76702 91.7344 13.2817 92.1019C17.747 92.5689 21.4348 90.303 22.6777 86.1573C23.4788 83.4852 23.4145 80.7939 22.4905 78.1517C21.6793 75.8321 20.0542 74.2215 17.616 73.5135C16.4798 73.1835 15.262 73.0126 14.0734 72.97C10.3457 72.8363 7.45396 74.6179 5.93917 77.932ZM13.369 63.7139C15.6955 63.7066 17.9556 63.3987 19.9913 62.224C23.3725 60.273 24.2518 55.8879 21.8092 52.9901C20.5361 51.4797 18.7261 50.8005 16.7916 50.5992C14.8683 50.399 12.9192 50.4048 10.9805 50.3695C9.07398 50.3348 7.16625 50.3619 5.04328 50.3619C6.66053 52.2078 6.4705 54.2823 6.46159 56.3288C6.44841 59.357 6.41404 62.3861 6.47573 65.4131C6.5095 67.07 6.23083 68.6009 5.23376 69.9763C5.21315 70.0047 5.24937 70.0713 5.25686 70.1089C8.02724 70.1089 10.7931 70.1089 13.7073 70.1089C12.0343 68.1606 12.2824 65.9663 12.356 63.7151C12.6798 63.7151 12.9467 63.7151 13.369 63.7139ZM56.7178 73.3172C52.2146 73.3172 47.7114 73.3172 43.1668 73.3172C44.6217 76.1868 44.29 75.7466 44.3138 78.6861C44.3389 81.7936 44.2987 84.9016 44.33 88.009C44.3418 89.1825 44.0429 90.2407 43.4049 91.2261C43.3128 91.3684 43.2441 91.5248 43.1472 91.7075C48.0565 91.7075 52.8812 91.7075 57.7026 91.7075C57.7026 89.9232 57.7026 88.2018 57.7026 86.3276C55.2208 88.1784 52.4634 87.3769 49.8374 87.5546C49.8374 86.5207 49.8374 85.6121 49.8374 84.7102C51.7079 84.4778 53.4161 84.7318 54.9624 85.8423C54.9624 83.7738 54.9624 81.8194 54.9624 79.7043C53.3916 80.941 51.6637 81.0789 49.8277 80.8932C49.8277 79.7772 49.8277 78.6863 49.8277 77.5018C52.5225 77.7206 55.2995 76.8916 57.7137 78.7455C57.7137 76.8552 57.7137 75.1249 57.7137 73.3172C57.4081 73.3172 57.142 73.3172 56.7178 73.3172ZM45.5612 50.3617C44.1482 50.3617 42.7353 50.3617 41.3002 50.3617C41.3002 52.3256 41.3002 54.1805 41.3002 56.1819C42.9273 55.0455 44.6424 54.6399 46.5782 54.9425C46.5782 55.2439 46.5782 55.5039 46.5782 55.7639C46.5782 59.243 46.5659 62.7222 46.5849 66.2012C46.5915 67.3974 46.2783 68.4876 45.6383 69.5026C45.5188 69.6921 45.416 69.8913 45.2949 70.1046C48.1407 70.1046 50.9076 70.1046 53.8093 70.1046C52.5237 68.5364 52.3879 66.812 52.4199 65.0127C52.4745 61.9298 52.435 58.8454 52.435 55.7617C52.435 55.4813 52.435 55.201 52.435 54.9343C54.2026 54.7326 54.5527 54.8086 57.6933 56.0418C57.6933 54.1604 57.6933 52.2868 57.6933 50.3617C53.6644 50.3617 49.695 50.3617 45.5612 50.3617ZM34.22 15.6069C36.3152 15.6069 38.4104 15.6069 40.5621 15.6069C40.5621 14.1159 40.493 12.7455 40.579 11.3842C40.6963 9.5273 40.492 7.77165 39.3715 6.19485C39.299 6.09288 39.272 5.96097 39.1933 5.76789C39.6268 5.55833 40.0291 5.36384 40.415 5.17734C41.8398 6.9742 42.3598 8.95447 42.1131 11.2374C42.583 11.1605 43.109 11.0952 43.24 10.8413C43.8435 9.67091 44.3368 8.44792 44.893 7.19111C43.4467 6.32515 42.0885 5.43791 40.6538 4.68585C39.9881 4.33687 39.1788 4.09857 38.4253 4.0739C36.0744 3.99696 33.7178 4.00353 31.3664 4.07191C30.6613 4.09241 29.9018 4.30777 29.2796 4.63287C27.9846 5.30947 26.7764 6.13813 25.5074 6.86348C25.0705 7.11321 25.0442 7.35627 25.2345 7.75992C25.686 8.71739 26.1286 9.68036 26.5235 10.6602C26.7593 11.2453 27.1345 11.3159 27.8123 11.076C27.3551 8.89397 28.1723 6.99685 29.4634 5.16965C29.8727 5.36649 30.2738 5.55939 30.6232 5.72743C30.1705 6.83364 29.5861 7.82012 29.3852 8.87425C29.1764 9.96968 29.3384 11.1305 29.3383 12.2628C29.3383 13.158 29.3341 14.0533 29.3419 14.9485C29.3437 15.148 29.3881 15.3472 29.4204 15.6069C30.9998 15.6069 32.5277 15.6069 34.22 15.6069ZM49.6583 28.4369C50.3256 29.2992 50.9929 30.1614 51.6973 31.0717C51.833 30.6929 51.9719 30.3522 52.0775 30.0022C52.7045 27.9253 52.903 25.8784 51.7234 23.885C51.5805 23.6436 51.6615 23.2273 51.7486 22.921C52.158 21.4804 51.9223 20.2351 50.7629 19.1621C50.442 18.8652 50.1939 18.4052 50.1056 17.9826C49.8106 16.5705 48.3455 15.9099 47.1432 16.723C47.1834 16.8139 47.2184 16.9125 47.2685 17.0033C48.8555 19.8761 49.3009 22.9423 48.7335 26.112C48.5523 27.1242 48.8425 27.7645 49.6583 28.4369ZM14.6334 18.5192C14.1556 17.1242 13.3099 15.9842 12.0509 15.1496C11.8197 14.9963 11.4798 14.8395 11.2408 14.8932C10.9665 14.9549 10.5311 15.2748 10.5518 15.437C10.5944 15.7724 10.8175 16.1714 11.0981 16.3806C13.7036 18.3239 14.2384 21.2248 12.4352 23.8574C12.0738 24.3849 11.6644 24.8872 11.3558 25.4417C11.0243 26.0373 10.6023 26.6653 10.5442 27.3065C10.4204 28.6727 10.5064 30.0565 10.5064 31.5023C11.9591 29.8414 11.8683 29.8339 12.0012 28.3441C12.0774 27.489 12.4478 26.6401 12.7949 25.8318C13.0203 25.3068 13.4438 24.8608 13.7758 24.3777C14.9981 22.5992 15.2492 20.678 14.6334 18.5192ZM29.3413 18.0467C29.3399 18.6205 29.7939 18.4656 30.1107 18.4664C33.3658 18.4751 36.6209 18.4729 39.8761 18.4689C40.0847 18.4687 40.2934 18.4286 40.5129 18.406C40.5129 17.943 40.5129 17.5347 40.5129 17.0862C36.7879 17.0862 33.1113 17.0862 29.3786 17.0862C29.3641 17.3851 29.3517 17.6416 29.3413 18.0467Z" fill="#FDFDFD"/>
<path d="M27.1606 43.2949C27.543 42.9735 27.8662 42.5446 28.2548 42.4801C29.1866 42.3254 29.3584 41.8231 29.3502 41.0331C29.3212 38.2399 29.3389 35.4463 29.3389 32.6529C29.3389 28.7262 29.3389 24.7996 29.3389 20.873C29.3389 20.5885 29.3389 20.304 29.3389 19.9643C29.6577 19.9419 29.8958 19.911 30.1339 19.9107C33.3659 19.9075 36.598 19.9166 39.83 19.9006C40.3652 19.8979 40.5556 20.0385 40.7809 20.5728C41.2238 21.6236 41.7704 22.7057 42.5469 23.5398C44.244 25.3627 46.1532 27.001 47.9005 28.7831C50.8918 31.834 52.4872 35.4699 52.5651 39.6847C52.5942 41.2636 52.5698 42.8434 52.5698 44.4876C47.8383 44.4876 43.1482 44.4876 38.4633 44.4876C38.2186 43.0527 38.7553 42.4047 40.2057 42.3614C40.6982 42.3467 41.1917 42.3613 41.6847 42.3579C42.6842 42.351 42.8425 42.2058 42.8478 41.2688C42.8534 40.2674 42.8673 39.2656 42.8455 38.2646C42.7905 35.7317 43.5907 33.5037 45.3527 31.6067C45.4226 31.5314 45.465 31.4324 45.5912 31.2313C45.251 30.957 44.9022 30.6757 44.5382 30.3822C41.3745 33.2412 41.1274 36.9592 41.402 40.8356C40.3614 40.9259 39.4237 41.0073 38.3758 41.0982C38.3758 36.7708 38.3758 32.3917 38.3758 27.9717C37.8103 27.9717 37.3572 27.9717 36.8231 27.9717C36.8231 33.4774 36.8231 38.9482 36.8231 44.4857C35.0388 44.4857 33.3339 44.4857 31.6312 44.4857C31.4015 43.3172 31.8221 42.627 32.9861 42.3874C33.5319 42.275 33.8131 42.0553 33.8124 41.5055C33.8065 37.1046 33.8078 32.7036 33.8035 28.3026C33.8034 28.2037 33.7633 28.1048 33.7343 27.9709C33.2843 27.9709 32.8595 27.9709 32.3205 27.9709C32.3205 28.2824 32.3205 28.5625 32.3205 28.8425C32.3204 32.611 32.3106 36.3796 32.3314 40.148C32.3345 40.6943 32.2453 41.0219 31.6564 41.2952C30.6595 41.758 30.1331 42.6219 30.0431 43.7022C30.0217 43.958 30.0108 44.2146 29.9926 44.5101C29.0238 44.5101 28.1045 44.5101 27.061 44.5101C27.0853 44.111 27.1083 43.7321 27.1606 43.2949Z" fill="#92B6A9"/>
<path d="M22.6616 17.8025C23.1782 17.8025 23.6188 17.7741 24.0542 17.808C25.1635 17.8944 26.1727 17.8448 26.7325 16.6766C26.8625 16.4054 27.253 16.2498 27.6825 15.9185C27.7162 16.3346 27.7525 16.5755 27.7526 16.8164C27.7556 24.6438 27.7517 32.4711 27.7636 40.2985C27.7643 40.7633 27.642 41.0165 27.1961 41.289C26.5819 41.6645 26.0996 42.2397 25.5602 42.7298C25.5602 39.7984 25.5602 36.7859 25.5602 33.7215C25.2529 33.6991 25.0144 33.6921 24.779 33.6624C24.1711 33.5858 23.9691 33.8278 23.9738 34.4183C23.9979 37.4752 23.9849 40.5325 23.9849 43.5896C23.9849 43.8739 23.9849 44.1583 23.9849 44.4976C23.4826 44.4976 23.0575 44.4976 22.7039 44.4976C21.8108 43.0285 21.7247 41.4417 21.7801 39.8038C21.8477 37.8054 21.7962 35.8033 21.7962 33.7339C21.3016 33.7339 20.859 33.7339 20.3129 33.7339C20.3129 36.3723 20.3129 38.9916 20.3129 41.6462C19.516 41.6462 18.8209 41.6462 18.0335 41.6462C18.1464 39.0005 17.5855 36.6088 15.5447 34.6843C15.365 34.816 15.2274 34.8981 15.1139 35.0041C14.9197 35.1856 14.7406 35.382 14.6372 35.488C15.1927 36.5582 15.8858 37.5111 16.1811 38.567C16.4947 39.688 16.4757 40.9052 16.5151 42.0831C16.5397 42.8169 16.8059 43.1589 17.586 43.128C18.2422 43.1021 18.9017 43.1017 19.5576 43.1325C20.3876 43.1714 20.8587 43.6599 20.9221 44.5177C17.4782 44.5177 14.037 44.5177 10.6137 44.5177C10.5646 44.4482 10.5085 44.4059 10.5089 44.364C10.534 41.6532 10.4419 38.9348 10.6249 36.2336C10.8398 33.0611 12.5832 30.6584 15.2667 28.8675C16.0762 28.3273 16.9131 27.825 17.7217 27.2836C18.9006 26.4943 19.5311 25.4306 19.5174 24.0129C19.4938 21.5622 19.511 19.111 19.5111 16.66C19.5111 16.4565 19.5111 16.2529 19.5111 15.7684C20.0723 16.2749 20.5649 16.56 20.8129 16.9791C21.2345 17.6912 21.8066 17.8997 22.6616 17.8025ZM22.4474 19.3798C21.99 19.3233 21.5325 19.2669 21.0528 19.2077C21.0528 19.7779 21.0528 20.186 21.0528 20.6072C21.5521 20.6072 21.9971 20.6072 22.4832 20.6072C22.4832 20.2023 22.4832 19.862 22.4474 19.3798ZM25.9613 20.6637C26.0924 20.2276 26.2236 19.7915 26.3706 19.3029C25.7041 19.3029 25.2654 19.3029 24.8194 19.3029C24.8194 19.7736 24.8194 20.178 24.8194 20.6699C25.1795 20.6699 25.4953 20.6699 25.9613 20.6637Z" fill="#92B6A9"/>
<path d="M38.2475 91.7692C36.9651 91.7692 35.7649 91.7692 34.4988 91.7692C34.5576 89.7331 33.5189 88.0901 32.7366 86.3691C32.0051 84.7598 31.2418 83.1639 30.4033 81.3718C30.3727 81.7415 30.3446 81.9252 30.3442 82.109C30.3409 83.8477 30.394 85.5882 30.3269 87.3245C30.2661 88.8947 30.5057 90.3576 31.587 91.718C29.0771 91.718 26.6937 91.718 24.2251 91.718C24.3793 91.44 24.5468 91.2313 24.6167 90.9958C24.8976 90.0482 25.3478 89.0974 25.3742 88.1386C25.467 84.769 25.4103 81.3955 25.4103 78.0235C25.4103 75.5453 25.4103 75.5453 24.2528 73.3798C26.8043 73.3798 29.3237 73.3798 31.9202 73.3798C31.8215 75.5381 33.0021 77.3365 33.8091 79.2461C34.4944 80.8678 35.2376 82.4668 36.0605 84.0508C36.0605 81.3843 36.1417 78.7143 36.0151 76.0535C35.9727 75.1609 35.4013 74.2916 35.0603 73.3813C37.3526 73.3813 39.7361 73.3813 42.1734 73.3813C42.0794 73.5508 41.9888 73.7284 41.8852 73.8986C41.3074 74.8483 41.0058 75.8516 41.0171 76.9727C41.0504 80.2654 41.058 83.5589 41.017 86.8513C40.9957 88.5561 41.018 90.2234 42.339 91.7693C40.8756 91.7693 39.6026 91.7693 38.2475 91.7692Z" fill="#35332F"/>
<path d="M25.8245 64.1631C25.8245 61.2657 25.7961 58.447 25.8346 55.6291C25.8596 53.798 25.8475 51.9964 24.4424 50.3983C29.8063 50.3983 34.9677 50.3983 40.1811 50.3983C40.1811 52.2778 40.1811 54.1578 40.1811 56.1718C37.6182 54.1966 34.6513 55.0706 31.77 54.8296C31.77 56.0804 31.77 57.271 31.77 58.5018C33.7149 58.734 35.5548 58.4916 37.244 57.2621C37.244 59.4915 37.244 61.5767 37.244 63.8057C35.5627 62.5715 33.7334 62.3625 31.7557 62.5829C31.7557 63.5594 31.7557 64.5428 31.7557 65.6374C34.6016 65.3872 37.579 66.3215 40.2024 64.3236C40.2024 66.3195 40.2024 68.1813 40.2024 70.1031C35.0251 70.1031 29.8408 70.1031 24.6455 70.1031C24.64 70.0856 24.5955 70.0158 24.6141 69.9923C25.9844 68.263 25.8681 66.2456 25.8245 64.1631Z" fill="#35332F"/>
<path d="M5.96823 77.8779C7.45399 74.6177 10.3457 72.836 14.0734 72.9698C15.262 73.0124 16.4798 73.1833 17.616 73.5132C20.0543 74.2213 21.6794 75.8319 22.4905 78.1515C23.4145 80.7937 23.4789 83.485 22.6777 86.1571C21.4348 90.3028 17.747 92.5687 13.2817 92.1017C9.76706 91.7342 7.06809 90.3249 5.79923 86.9799C5.1036 85.146 4.90002 83.2275 5.14722 81.3007C5.29309 80.1637 5.66755 79.0538 5.96823 77.8779ZM11.4622 86.3426C12.0028 87.5188 12.8667 88.3307 14.2667 88.291C15.7057 88.2503 16.457 87.2717 16.8602 86.0941C17.6885 83.6751 17.6973 81.2172 16.833 78.8069C16.3205 77.3776 15.0978 76.6371 13.7492 76.8303C12.2906 77.0391 11.6681 78.1109 11.3018 79.3091C10.5965 81.6165 10.6388 83.9328 11.4622 86.3426Z" fill="#35332F"/>
<path d="M13.2912 63.7144C12.9466 63.715 12.6797 63.715 12.3559 63.715C12.2823 65.9662 12.0343 68.1605 13.7072 70.1088C10.793 70.1088 8.02717 70.1088 5.25679 70.1088C5.2493 70.0712 5.21308 70.0046 5.23369 69.9762C6.23077 68.6008 6.50943 67.0699 6.47566 65.413C6.41397 62.386 6.44834 59.3569 6.46152 56.3287C6.47043 54.2822 6.66047 52.2077 5.04321 50.3618C7.16618 50.3618 9.07391 50.3347 10.9804 50.3694C12.9192 50.4047 14.8682 50.3989 16.7916 50.5991C18.726 50.8004 20.536 51.4796 21.8091 52.99C24.2517 55.8878 23.3724 60.2729 19.9912 62.2239C17.9556 63.3986 15.6954 63.7065 13.2912 63.7144ZM16.5254 55.5894C15.4107 54.3419 13.9099 54.3927 12.3703 54.3929C12.3703 56.2725 12.3703 58.089 12.3703 60.0281C13.2138 59.9476 14.0146 59.9621 14.7651 59.7822C16.8455 59.2836 17.5981 57.5341 16.5254 55.5894Z" fill="#34322E"/>
<path d="M56.7975 73.3172C57.1427 73.3172 57.4089 73.3172 57.7144 73.3172C57.7144 75.1249 57.7144 76.8552 57.7144 78.7455C55.3003 76.8916 52.5232 77.7206 49.8284 77.5018C49.8284 78.6864 49.8284 79.7772 49.8284 80.8933C51.6645 81.0789 53.3924 80.941 54.9632 79.7043C54.9632 81.8194 54.9632 83.7738 54.9632 85.8423C53.4169 84.7319 51.7087 84.4778 49.8381 84.7102C49.8381 85.6121 49.8381 86.5207 49.8381 87.5547C52.4641 87.3769 55.2216 88.1784 57.7033 86.3276C57.7033 88.2018 57.7033 89.9232 57.7033 91.7075C52.8819 91.7075 48.0573 91.7075 43.1479 91.7075C43.2449 91.5248 43.3135 91.3684 43.4057 91.2261C44.0437 90.2407 44.3426 89.1825 44.3308 88.0091C44.2995 84.9016 44.3397 81.7936 44.3145 78.6861C44.2908 75.7467 44.6224 76.1868 43.1675 73.3172C47.7121 73.3172 52.2153 73.3172 56.7975 73.3172Z" fill="#363430"/>
<path d="M45.6437 50.3616C49.6953 50.3616 53.6647 50.3616 57.6936 50.3616C57.6936 52.2866 57.6936 54.1603 57.6936 56.0417C54.553 54.8085 54.203 54.7325 52.4353 54.9342C52.4353 55.2009 52.4353 55.4812 52.4353 55.7616C52.4353 58.8453 52.4748 61.9297 52.4202 65.0126C52.3883 66.8119 52.524 68.5363 53.8096 70.1045C50.908 70.1045 48.1411 70.1045 45.2952 70.1045C45.4163 69.8912 45.5192 69.692 45.6387 69.5025C46.2786 68.4875 46.5918 67.3973 46.5853 66.2011C46.5662 62.7221 46.5785 59.2429 46.5785 55.7638C46.5785 55.5038 46.5785 55.2438 46.5785 54.9424C44.6427 54.6398 42.9276 55.0454 41.3005 56.1818C41.3005 54.1804 41.3005 52.3255 41.3005 50.3616C42.7356 50.3616 44.1486 50.3616 45.6437 50.3616Z" fill="#34322E"/>
<path d="M34.1387 15.6067C32.5285 15.6067 31.0006 15.6067 29.4212 15.6067C29.3889 15.347 29.3445 15.1479 29.3427 14.9483C29.3349 14.0531 29.3391 13.1579 29.3391 12.2626C29.3392 11.1304 29.1772 9.96952 29.386 8.87409C29.5869 7.81995 30.1713 6.83348 30.624 5.72727C30.2746 5.55923 29.8735 5.36633 29.4642 5.16949C28.1731 6.99668 27.3559 8.89381 27.8131 11.0759C27.1353 11.3158 26.7601 11.2451 26.5243 10.6601C26.1294 9.68019 25.6868 8.71723 25.2353 7.75976C25.045 7.35611 25.0713 7.11304 25.5082 6.86332C26.7772 6.13797 27.9854 5.30931 29.2804 4.63271C29.9026 4.3076 30.6621 4.09225 31.3672 4.07174C33.7186 4.00337 36.0752 3.9968 38.4261 4.07374C39.1796 4.09841 39.9889 4.3367 40.6546 4.68568C42.0893 5.43775 43.4475 6.32499 44.8938 7.19094C44.3376 8.44776 43.8443 9.67075 43.2408 10.8412C43.1098 11.0951 42.5838 11.1603 42.1139 11.2372C42.3606 8.95431 41.8406 6.97404 40.4158 5.17718C40.0299 5.36368 39.6276 5.55817 39.1941 5.76772C39.2728 5.9608 39.2998 6.09272 39.3723 6.19469C40.4928 7.77149 40.6971 9.52714 40.5798 11.384C40.4938 12.7453 40.5629 14.1157 40.5629 15.6067C38.4112 15.6067 36.316 15.6067 34.1387 15.6067ZM34.6769 13.2912C35.6975 14.1853 36.9076 14.284 38.2073 14.1094C38.2073 13.6396 38.2073 13.2141 38.2073 12.7934C37.2855 12.6275 36.2538 13.0003 35.6007 11.9532C36.8826 11.6353 36.8287 10.705 36.789 9.78236C36.7507 8.89078 36.1799 8.37849 35.1921 8.34578C33.1576 8.27841 32.4343 8.61475 32.3273 9.67802C32.3247 9.70421 32.3266 9.73081 32.324 9.757C32.2254 10.7415 32.372 11.6153 33.5288 12.013C32.8335 13.0323 31.7292 12.5628 30.892 12.8279C30.892 13.2837 30.892 13.6909 30.892 14.1089C32.2783 14.3168 33.5017 14.1235 34.6769 13.2912ZM38.3702 8.0503C38.3702 7.69451 38.3702 7.33872 38.3702 6.97263C37.7918 6.97263 37.3222 6.97263 36.8331 6.97263C36.8331 7.44052 36.8331 7.84577 36.8331 8.40246C37.3749 8.32462 37.8565 8.25541 38.3702 8.0503ZM32.314 7.19875C31.8528 7.07691 31.3917 6.95507 30.8893 6.82234C30.8893 7.45544 30.8893 7.86441 30.8893 8.27541C31.3922 8.27541 31.8355 8.27541 32.3206 8.27541C32.3206 7.91778 32.3206 7.62988 32.314 7.19875Z" fill="#93B6A9"/>
<path d="M49.6191 28.3946C48.8426 27.7644 48.5524 27.1241 48.7336 26.1119C49.301 22.9422 48.8556 19.876 47.2686 17.0032C47.2185 16.9124 47.1835 16.8138 47.1433 16.7229C48.3456 15.9098 49.8107 16.5704 50.1057 17.9825C50.194 18.4051 50.4421 18.8651 50.763 19.1621C51.9224 20.235 52.1581 21.4803 51.7487 22.9209C51.6616 23.2272 51.5806 23.6435 51.7235 23.8849C52.9031 25.8783 52.7046 27.9252 52.0776 30.0021C51.972 30.3521 51.8331 30.6928 51.6974 31.0716C50.993 30.1613 50.3257 29.2991 49.6191 28.3946Z" fill="#93B6A9"/>
<path d="M14.6593 18.5783C15.2499 20.678 14.9988 22.5992 13.7765 24.3777C13.4445 24.8608 13.021 25.3067 12.7956 25.8318C12.4485 26.6401 12.0782 27.489 12.0019 28.3441C11.869 29.8339 11.9598 29.8414 10.5071 31.5023C10.5071 30.0564 10.4211 28.6726 10.545 27.3064C10.6031 26.6653 11.0251 26.0373 11.3566 25.4416C11.6651 24.8872 12.0745 24.3849 12.4359 23.8573C14.2391 21.2248 13.7043 18.3239 11.0988 16.3806C10.8182 16.1713 10.5952 15.7723 10.5525 15.437C10.5319 15.2747 10.9672 14.9548 11.2415 14.8932C11.4805 14.8395 11.8204 14.9963 12.0517 15.1496C13.3106 15.9841 14.1564 17.1241 14.6593 18.5783Z" fill="#94B7AA"/>
<path d="M29.3411 17.9722C29.3525 17.6414 29.3649 17.3849 29.3794 17.086C33.1121 17.086 36.7887 17.086 40.5137 17.086C40.5137 17.5345 40.5137 17.9428 40.5137 18.4058C40.2942 18.4284 40.0855 18.4685 39.8768 18.4687C36.6217 18.4727 33.3666 18.4749 30.1115 18.4662C29.7947 18.4654 29.3407 18.6203 29.3411 17.9722Z" fill="#91B5A8"/>
<path d="M22.4654 19.4506C22.4833 19.8619 22.4833 20.2022 22.4833 20.6071C21.9972 20.6071 21.5522 20.6071 21.053 20.6071C21.053 20.1859 21.053 19.7778 21.053 19.2076C21.5326 19.2668 21.9901 19.3232 22.4654 19.4506Z" fill="#FCFDFD"/>
<path d="M25.8861 20.6666C25.4952 20.6697 25.1794 20.6697 24.8193 20.6697C24.8193 20.1778 24.8193 19.7734 24.8193 19.3027C25.2654 19.3027 25.704 19.3027 26.3705 19.3027C26.2235 19.7913 26.0923 20.2274 25.8861 20.6666Z" fill="#FDFEFE"/>
<path d="M11.4408 86.285C10.6384 83.933 10.5962 81.6167 11.3015 79.3093C11.6677 78.1111 12.2903 77.0393 13.7489 76.8305C15.0975 76.6373 16.3201 77.3778 16.8326 78.8071C17.697 81.2174 17.6882 83.6753 16.8599 86.0943C16.4567 87.2719 15.7053 88.2505 14.2664 88.2912C12.8663 88.3309 12.0024 87.519 11.4408 86.285Z" fill="#FDFDFD"/>
<path d="M16.5577 55.6399C17.5982 57.5341 16.8456 59.2835 14.7652 59.7821C14.0147 59.962 13.2139 59.9476 12.3704 60.0281C12.3704 58.089 12.3704 56.2724 12.3704 54.3929C13.91 54.3926 15.4107 54.3418 16.5577 55.6399Z" fill="#FAFAFA"/>
<path d="M34.6182 13.2805C33.5006 14.1237 32.2772 14.317 30.8909 14.1091C30.8909 13.6911 30.8909 13.284 30.8909 12.8281C31.7281 12.563 32.8324 13.0325 33.5277 12.0132C32.3709 11.6155 32.2243 10.7417 32.3229 9.75721C32.3255 9.73102 32.3236 9.70442 32.3262 9.67823C32.4332 8.61496 33.1565 8.27862 35.191 8.34599C36.1788 8.3787 36.7496 8.89099 36.7879 9.78257C36.8276 10.7052 36.8815 11.6355 35.5996 11.9534C36.2527 13.0005 37.2844 12.6277 38.2062 12.7936C38.2062 13.2143 38.2062 13.6398 38.2062 14.1096C36.9065 14.2842 35.6964 14.1855 34.6182 13.2805ZM34.4039 9.77494C33.8041 9.72403 33.7157 10.0055 33.9571 10.6794C34.4177 10.5156 35.1093 10.4658 35.2388 10.1801C35.4654 9.6801 34.8604 9.81764 34.4039 9.77494Z" fill="#FDFEFD"/>
<path d="M38.3535 8.11822C37.8559 8.25538 37.3743 8.32459 36.8325 8.40243C36.8325 7.84574 36.8325 7.44049 36.8325 6.9726C37.3216 6.9726 37.7912 6.9726 38.3696 6.9726C38.3696 7.33869 38.3696 7.69448 38.3535 8.11822Z" fill="#F6F9F8"/>
<path d="M32.3171 7.27045C32.3204 7.62997 32.3204 7.91786 32.3204 8.2755C31.8353 8.2755 31.392 8.2755 30.8892 8.2755C30.8892 7.86449 30.8892 7.45553 30.8892 6.82243C31.3915 6.95516 31.8527 7.077 32.3171 7.27045Z" fill="#FDFEFE"/>
<path d="M34.4773 9.77507C34.8608 9.81782 35.4658 9.68029 35.2392 10.1803C35.1098 10.466 34.4182 10.5158 33.9576 10.6796C33.7162 10.0057 33.8046 9.72421 34.4773 9.77507Z" fill="#9ABBAF"/>
</svg>
