<svg width="17" height="16" viewBox="0 0 17 16" fill="none" xmlns="http://www.w3.org/2000/svg">
<path d="M8.5 8C7.33125 8 6.33073 7.60833 5.49844 6.825C4.66615 6.04167 4.25 5.1 4.25 4C4.25 2.9 4.66615 1.95833 5.49844 1.175C6.33073 0.391667 7.33125 0 8.5 0C9.66875 0 10.6693 0.391667 11.5016 1.175C12.3339 1.95833 12.75 2.9 12.75 4C12.75 5.1 12.3339 6.04167 11.5016 6.825C10.6693 7.60833 9.66875 8 8.5 8ZM0 16V13.2C0 12.6333 0.154948 12.1125 0.464844 11.6375C0.77474 11.1625 1.18646 10.8 1.7 10.55C2.79792 10.0333 3.91354 9.64583 5.04688 9.3875C6.18021 9.12917 7.33125 9 8.5 9C9.66875 9 10.8198 9.12917 11.9531 9.3875C13.0865 9.64583 14.2021 10.0333 15.3 10.55C15.8135 10.8 16.2253 11.1625 16.5352 11.6375C16.8451 12.1125 17 12.6333 17 13.2V16H0ZM2.125 14H14.875V13.2C14.875 13.0167 14.8263 12.85 14.7289 12.7C14.6315 12.55 14.5031 12.4333 14.3438 12.35C13.3875 11.9 12.4224 11.5625 11.4484 11.3375C10.4745 11.1125 9.49167 11 8.5 11C7.50833 11 6.52552 11.1125 5.55156 11.3375C4.5776 11.5625 3.6125 11.9 2.65625 12.35C2.49688 12.4333 2.36849 12.55 2.27109 12.7C2.1737 12.85 2.125 13.0167 2.125 13.2V14ZM8.5 6C9.08438 6 9.58464 5.80417 10.0008 5.4125C10.4169 5.02083 10.625 4.55 10.625 4C10.625 3.45 10.4169 2.97917 10.0008 2.5875C9.58464 2.19583 9.08438 2 8.5 2C7.91563 2 7.41536 2.19583 6.99922 2.5875C6.58307 2.97917 6.375 3.45 6.375 4C6.375 4.55 6.58307 5.02083 6.99922 5.4125C7.41536 5.80417 7.91563 6 8.5 6Z" fill="#6E6E6E"/>
</svg>
