<svg width="21" height="19" viewBox="0 0 21 19" fill="none" xmlns="http://www.w3.org/2000/svg">
<path d="M2.625 9C1.89 9 1.26875 8.75833 0.76125 8.275C0.25375 7.79167 0 7.2 0 6.5C0 5.8 0.25375 5.20833 0.76125 4.725C1.26875 4.24167 1.89 4 2.625 4C3.36 4 3.98125 4.24167 4.48875 4.725C4.99625 5.20833 5.25 5.8 5.25 6.5C5.25 7.2 4.99625 7.79167 4.48875 8.275C3.98125 8.75833 3.36 9 2.625 9ZM7.35 5C6.615 5 5.99375 4.75833 5.48625 4.275C4.97875 3.79167 4.725 3.2 4.725 2.5C4.725 1.8 4.97875 1.20833 5.48625 0.725C5.99375 0.241667 6.615 0 7.35 0C8.085 0 8.70625 0.241667 9.21375 0.725C9.72125 1.20833 9.975 1.8 9.975 2.5C9.975 3.2 9.72125 3.79167 9.21375 4.275C8.70625 4.75833 8.085 5 7.35 5ZM13.65 5C12.915 5 12.2937 4.75833 11.7862 4.275C11.2787 3.79167 11.025 3.2 11.025 2.5C11.025 1.8 11.2787 1.20833 11.7862 0.725C12.2937 0.241667 12.915 0 13.65 0C14.385 0 15.0062 0.241667 15.5137 0.725C16.0212 1.20833 16.275 1.8 16.275 2.5C16.275 3.2 16.0212 3.79167 15.5137 4.275C15.0062 4.75833 14.385 5 13.65 5ZM18.375 9C17.64 9 17.0187 8.75833 16.5112 8.275C16.0037 7.79167 15.75 7.2 15.75 6.5C15.75 5.8 16.0037 5.20833 16.5112 4.725C17.0187 4.24167 17.64 4 18.375 4C19.11 4 19.7312 4.24167 20.2387 4.725C20.7463 5.20833 21 5.8 21 6.5C21 7.2 20.7463 7.79167 20.2387 8.275C19.7312 8.75833 19.11 9 18.375 9ZM4.8825 19C4.095 19 3.43437 18.7125 2.90062 18.1375C2.36687 17.5625 2.1 16.8833 2.1 16.1C2.1 15.2333 2.41062 14.475 3.03187 13.825C3.65312 13.175 4.27 12.5333 4.8825 11.9C5.39 11.3833 5.8275 10.8208 6.195 10.2125C6.5625 9.60417 7 9.03333 7.5075 8.5C7.8925 8.06667 8.33875 7.70833 8.84625 7.425C9.35375 7.14167 9.905 7 10.5 7C11.095 7 11.6462 7.13333 12.1537 7.4C12.6612 7.66667 13.1075 8.01667 13.4925 8.45C13.9825 8.98333 14.4156 9.55833 14.7919 10.175C15.1681 10.7917 15.61 11.3667 16.1175 11.9C16.73 12.5333 17.3469 13.175 17.9681 13.825C18.5894 14.475 18.9 15.2333 18.9 16.1C18.9 16.8833 18.6331 17.5625 18.0994 18.1375C17.5656 18.7125 16.905 19 16.1175 19C15.1725 19 14.2362 18.925 13.3087 18.775C12.3812 18.625 11.445 18.55 10.5 18.55C9.555 18.55 8.61875 18.625 7.69125 18.775C6.76375 18.925 5.8275 19 4.8825 19Z" fill="#6E6E6E"/>
</svg>
