<svg width="15" height="18" viewBox="0 0 15 18" fill="none" xmlns="http://www.w3.org/2000/svg">
<path d="M5.89286 14.5H9.10714V12H11.7857V9H9.10714V6.5H5.89286V9H3.21429V12H5.89286V14.5ZM2.14286 18C1.55357 18 1.04911 17.8042 0.629464 17.4125C0.209821 17.0208 0 16.55 0 16V5C0 4.45 0.209821 3.97917 0.629464 3.5875C1.04911 3.19583 1.55357 3 2.14286 3H12.8571C13.4464 3 13.9509 3.19583 14.3705 3.5875C14.7902 3.97917 15 4.45 15 5V16C15 16.55 14.7902 17.0208 14.3705 17.4125C13.9509 17.8042 13.4464 18 12.8571 18H2.14286ZM2.14286 16H12.8571V5H2.14286V16ZM1.07143 2V0H13.9286V2H1.07143Z" fill="#6E6E6E"/>
</svg>
