<svg width="21" height="20" viewBox="0 0 21 20" fill="none" xmlns="http://www.w3.org/2000/svg">
<path d="M13.965 14.7L15.435 13.3L11.55 9.6V5H9.45V10.4L13.965 14.7ZM10.5 20C9.0475 20 7.6825 19.7375 6.405 19.2125C5.1275 18.6875 4.01625 17.975 3.07125 17.075C2.12625 16.175 1.37812 15.1167 0.826875 13.9C0.275625 12.6833 0 11.3833 0 10C0 8.61667 0.275625 7.31667 0.826875 6.1C1.37812 4.88333 2.12625 3.825 3.07125 2.925C4.01625 2.025 5.1275 1.3125 6.405 0.7875C7.6825 0.2625 9.0475 0 10.5 0C11.9525 0 13.3175 0.2625 14.595 0.7875C15.8725 1.3125 16.9837 2.025 17.9287 2.925C18.8738 3.825 19.6219 4.88333 20.1731 6.1C20.7244 7.31667 21 8.61667 21 10C21 11.3833 20.7244 12.6833 20.1731 13.9C19.6219 15.1167 18.8738 16.175 17.9287 17.075C16.9837 17.975 15.8725 18.6875 14.595 19.2125C13.3175 19.7375 11.9525 20 10.5 20ZM10.5 18C12.8275 18 14.8094 17.2208 16.4456 15.6625C18.0819 14.1042 18.9 12.2167 18.9 10C18.9 7.78333 18.0819 5.89583 16.4456 4.3375C14.8094 2.77917 12.8275 2 10.5 2C8.1725 2 6.19062 2.77917 4.55437 4.3375C2.91812 5.89583 2.1 7.78333 2.1 10C2.1 12.2167 2.91812 14.1042 4.55437 15.6625C6.19062 17.2208 8.1725 18 10.5 18Z" fill="#6E6E6E"/>
</svg>
